<?xml version="1.0" encoding="utf-8"?>
<!-- Generator: Adobe Illustrator 26.5.0, SVG Export Plug-In . SVG Version: 6.00 Build 0)  -->
<svg version="1.1" id="Layer_2_00000140694339456465467140000001968564250097486507_"
	 xmlns="http://www.w3.org/2000/svg" xmlns:xlink="http://www.w3.org/1999/xlink" x="0px" y="0px" viewBox="0 0 413.1 142.8"
	 style="enable-background:new 0 0 413.1 142.8;" xml:space="preserve">
<style type="text/css">
	.st0{fill:#FFFFFF;}
</style>
<g id="Layer_1-2">
	<g>
		<g>
			<g>
				<path class="st0" d="M144.2,0.9h38v3.4h-17.2v51.3h-3.7V4.3h-17.2L144.2,0.9L144.2,0.9z"/>
				<path class="st0" d="M183.8,45.8c0-6.8,5.2-11.1,13.9-11.8l12.7-1v-1.4c0-8.3-4.9-10.7-10.8-10.7c-6.9,0-10.9,3.2-10.9,8.6h-3.5
					c0-7.2,5.9-11.9,14.6-11.9c7.9,0,14.2,3.9,14.2,13.4v24.5H211l-0.7-6.9c-2.5,5-7.7,7.8-14.1,7.8
					C188.3,56.5,183.8,52.1,183.8,45.8L183.8,45.8z M210.3,38v-2l-12.4,1c-7.5,0.6-10.6,4.2-10.6,8.8c0,5.1,3.9,7.6,9.4,7.6
					C205.4,53.3,210.3,47,210.3,38z"/>
				<path class="st0" d="M222.6,68.3h3.5c3,0,6.7,0,8.6-5.2l1.9-5l-15-39.5h3.7l13,34.6l12.5-34.6h3.6L238,64.1
					c-1.9,5.3-5.3,7.5-10.3,7.5c-2,0-3.5-0.2-5-0.5L222.6,68.3L222.6,68.3z"/>
				<path class="st0" d="M263.6,55.6V0h3.5v55.6H263.6z"/>
				<path class="st0" d="M297,17.7c10.5,0,18.3,8.2,18.3,19.4s-7.8,19.4-18.3,19.4s-18.3-8.2-18.3-19.4S286.4,17.7,297,17.7z
					 M297,53.3c8.6,0,14.7-6.7,14.7-16.2s-6.1-16.2-14.7-16.2s-14.7,6.7-14.7,16.2S288.4,53.3,297,53.3z"/>
				<path class="st0" d="M344.2,21.2h-2.8c-6.9,0-11.3,5-11.3,11.9v22.5h-3.5V18.6h3.3l0.3,5.9c1.5-4.1,5.5-6.9,10.8-6.9
					c1.1,0,2,0.1,3.2,0.4L344.2,21.2L344.2,21.2z"/>
				<path class="st0" d="M375.3,55.6v-3.3l33.4-47.9h-33.2V0.9h37.6v3.3l-33.4,48h33v3.4H375.3z"/>
			</g>
			<g>
				<path class="st0" d="M154.1,122.9h26v3.4h-29.7V71.6h3.7L154.1,122.9L154.1,122.9z"/>
				<path class="st0" d="M187.8,116.5c0-6.8,5.2-11.1,13.9-11.8l12.7-1v-1.4c0-8.3-4.9-10.7-10.8-10.7c-6.9,0-10.9,3.2-10.9,8.6
					h-3.5c0-7.2,5.9-11.8,14.6-11.8c7.9,0,14.2,3.8,14.2,13.4v24.5H215l-0.7-6.9c-2.5,5-7.7,7.8-14.1,7.8
					C192.3,127.2,187.8,122.8,187.8,116.5L187.8,116.5z M214.3,108.7v-2l-12.4,1c-7.5,0.6-10.6,4.2-10.6,8.8c0,5.1,3.9,7.6,9.4,7.6
					C209.4,124.1,214.3,117.7,214.3,108.7z"/>
				<path class="st0" d="M231.4,126.3V89.3h2.9l0.8,7.2c2.5-5.2,7.5-8.1,13.1-8.1c10.5,0,14.4,6.2,14.4,15.4v22.5H259v-21.8
					c0-9.8-4.2-12.8-10.9-12.8c-8.4,0-13.1,6.2-13.1,15.6v19.1L231.4,126.3L231.4,126.3z"/>
				<path class="st0" d="M290.5,88.4c6.9,0,12,3.4,14.5,9.5l0.5-8.6h2.9v36.2c0,10.3-6.9,17.2-17.2,17.2c-8.9,0-15.3-5-16.9-13.5
					h3.5c1.4,6.5,6.4,10.2,13.5,10.2c8.2,0,13.6-5.6,13.6-14v-10c-2.5,5.9-8,9.4-14.7,9.4c-10.6,0-16.9-8.5-16.9-18.2
					S279.6,88.4,290.5,88.4L290.5,88.4z M290.4,121.7c8.8,0,13.9-6.4,13.9-15.1s-4.9-14.9-13.7-14.9s-13.6,6.9-13.6,15
					S281.8,121.7,290.4,121.7L290.4,121.7z"/>
				<path class="st0" d="M319.5,107.9c0-11.5,7-19.5,17.3-19.5c9.6,0,16.2,6.9,16.2,17v2.5h-30c0.3,10.1,5.5,16.1,14.2,16.1
					c6.5,0,10.7-2.8,12.2-8.3h3.6c-2.1,7.6-7.5,11.5-15.8,11.5C326.6,127.2,319.5,119.5,319.5,107.9z M323.1,105h26.3
					c0-8-5-13.3-12.6-13.3S324,96.9,323.1,105z"/>
			</g>
		</g>
		<g>
			<g>
				<polygon class="st0" points="119.2,61.5 105.4,56.5 105.6,56.2 119.3,61.2 				"/>
				<polygon class="st0" points="118.2,89.3 105.2,56.3 105.5,56.2 118.5,89.2 				"/>
				<polygon class="st0" points="74.6,58.7 74.6,58.4 105.4,56.3 105.4,56.6 				"/>
				<polygon class="st0" points="83.5,99.3 74.7,59.2 75,59.1 83.8,99.3 				"/>
				
					<rect x="82.6" y="94.1" transform="matrix(0.962 -0.273 0.273 0.962 -21.9057 31.0917)" class="st0" width="36.5" height="0.3"/>
				<polygon class="st0" points="105.4,56.6 91.3,9.6 91.5,9.5 105.7,56.6 				"/>
				<polygon class="st0" points="104.7,23.7 91.3,9.7 91.5,9.5 104.9,23.5 				"/>
				<polygon class="st0" points="55.6,42 55.4,41.7 91.3,9.5 91.5,9.7 				"/>
				
					<rect x="65" y="37.5" transform="matrix(0.6669 -0.7451 0.7451 0.6669 -15.6511 65.2594)" class="st0" width="0.3" height="25.3"/>
				<polygon class="st0" points="57.4,120.2 57.2,119.9 83.7,98.4 83.9,98.6 				"/>
				<polygon class="st0" points="13.6,99.3 13.6,99.1 37.8,91.7 37.9,92 				"/>
				<polygon class="st0" points="29.9,112.5 13.5,99.3 13.7,99.1 30.1,112.2 				"/>
				<polygon class="st0" points="56.8,120.9 13.5,99.3 13.7,99.1 56.9,120.6 				"/>
				<polygon class="st0" points="13.4,98.1 9.4,73.9 9.7,73.8 13.8,98.1 				"/>
				<polygon class="st0" points="2.3,64.5 2.1,64.3 26.2,42.8 26.4,43.1 				"/>
				<polygon class="st0" points="37.8,91.8 26.5,42.7 26.8,42.6 38.1,91.7 				"/>
				<polygon class="st0" points="83.6,99.1 37.4,92 37.4,91.7 83.7,98.8 				"/>
				<polygon class="st0" points="37.5,91.9 37.3,91.7 74.7,58.5 74.9,58.7 				"/>
				<polygon class="st0" points="26.6,42.8 26.6,42.5 55.6,41.6 55.6,41.9 				"/>
				<polygon class="st0" points="26.8,42.7 26.5,42.6 33.2,10.7 33.5,10.7 				"/>
				<polygon class="st0" points="55.5,41.9 33.3,10.8 33.5,10.6 55.7,41.7 				"/>
				<polygon class="st0" points="91.1,9.8 64.9,6.5 65,6.2 91.2,9.5 				"/>
				<polygon class="st0" points="1.2,64.5 1,64.3 13.5,32.5 13.7,32.6 				"/>
				
					<rect x="4.8" y="63" transform="matrix(0.7691 -0.6392 0.6392 0.7691 -43.0076 19.151)" class="st0" width="0.3" height="12.2"/>
				<polygon class="st0" points="104.8,23.8 33.3,10.9 33.4,10.6 104.8,23.5 				"/>
				
					<rect x="47.2" y="89" transform="matrix(0.8358 -0.549 0.549 0.8358 -50.5832 43.4352)" class="st0" width="0.3" height="34.6"/>
			</g>
			<g>
				<rect x="79" y="94.5" transform="matrix(0.2468 -0.9691 0.9691 0.2468 -46.2248 159.5031)" class="st0" width="1" height="30"/>
				
					<rect x="52.4" y="63.4" transform="matrix(0.8772 -0.4801 0.4801 0.8772 -34.108 35.8017)" class="st0" width="1" height="42.3"/>
				
					<rect x="63.3" y="92.8" transform="matrix(0.8619 -0.5071 0.5071 0.8619 -35.6242 55.834)" class="st0" width="42.8" height="1"/>
				
					<rect x="30.3" y="108.1" transform="matrix(0.9822 -0.1879 0.1879 0.9822 -19.5828 10.6546)" class="st0" width="32.3" height="1"/>
				
					<rect x="94.3" y="40.9" transform="matrix(0.9238 -0.3828 0.3828 0.9238 -16.2218 40.9621)" class="st0" width="1" height="40.7"/>
				<polygon class="st0" points="44.3,65.9 43.8,65.1 84.6,43.5 85.1,44.4 				"/>
				<polygon class="st0" points="9.7,74.3 9.5,73.4 40.9,66 41.2,67 				"/>
				<polygon class="st0" points="43.1,65.4 42.2,65.2 49.1,22.8 50.1,23 				"/>
				<rect x="67.5" y="12.3" transform="matrix(0.4661 -0.8847 0.8847 0.4661 7.8495 77.329)" class="st0" width="1" height="39.6"/>
				
					<rect x="84.8" y="31.9" transform="matrix(0.6752 -0.7376 0.7376 0.6752 7.4941 81.8793)" class="st0" width="23.9" height="1"/>
				<polygon class="st0" points="105.2,81.4 104.4,80.8 118.9,61 119.7,61.6 				"/>
				<polygon class="st0" points="50.6,22.5 49.9,21.8 64.9,6 65.6,6.7 				"/>
				<polygon class="st0" points="14.4,32.9 14.2,32 48.7,22.2 48.9,23.2 				"/>
				
					<rect x="10.6" y="18.6" transform="matrix(0.8952 -0.4456 0.4456 0.8952 -4.395 19.5002)" class="st0" width="57.3" height="1"/>
				<rect x="-9" y="52.4" transform="matrix(0.1052 -0.9944 0.9944 0.1052 -42.3739 58.7632)" class="st0" width="41" height="1"/>
				
					<rect x="19.1" y="71.8" transform="matrix(0.871 -0.4912 0.4912 0.871 -43.1814 21.6029)" class="st0" width="1" height="42.4"/>
				<polygon class="st0" points="94.1,113.7 30,112.9 30,111.9 94.1,112.7 				"/>
				<polygon class="st0" points="94.8,113.2 93.8,112.9 102.8,83.4 103.7,83.7 				"/>
				<polygon class="st0" points="119.6,60.7 103.8,22.9 104.7,22.5 120.5,60.4 				"/>
				
					<rect x="84.3" y="-7.1" transform="matrix(0.4023 -0.9155 0.9155 0.4023 37.274 86.4311)" class="st0" width="1" height="43.6"/>
				
					<rect x="78.1" y="87.4" transform="matrix(0.441 -0.8975 0.8975 0.441 -18.9729 145.2309)" class="st0" width="58.1" height="1"/>
			</g>
			<g>
				<circle class="st0" cx="42.8" cy="65.9" r="3.4"/>
				<circle class="st0" cx="87" cy="42.7" r="3.4"/>
				<circle class="st0" cx="103.1" cy="81.9" r="3.4"/>
				<circle class="st0" cx="64.6" cy="104.8" r="3.4"/>
			</g>
			<g>
				<circle class="st0" cx="9.3" cy="73.8" r="1.7"/>
				<circle class="st0" cx="29.9" cy="111.9" r="1.7"/>
				<circle class="st0" cx="56.8" cy="120.8" r="1.7"/>
				<circle class="st0" cx="94.1" cy="113.2" r="1.7"/>
				<circle class="st0" cx="118.6" cy="89.3" r="1.7"/>
				<circle class="st0" cx="119.5" cy="61.2" r="1.7"/>
				<circle class="st0" cx="104.8" cy="23.5" r="1.7"/>
				<circle class="st0" cx="64.9" cy="5.9" r="1.7"/>
				<circle class="st0" cx="49.8" cy="22.7" r="1.7"/>
				<circle class="st0" cx="32.9" cy="10.7" r="1.7"/>
				<circle class="st0" cx="13.6" cy="32.5" r="1.7"/>
			</g>
			<g>
				<circle class="st0" cx="1.1" cy="64.4" r="1.1"/>
				<circle class="st0" cx="26.3" cy="43" r="1.1"/>
				<circle class="st0" cx="55.7" cy="41.8" r="1.1"/>
				<circle class="st0" cx="91.4" cy="9.6" r="1.1"/>
				<circle class="st0" cx="105.4" cy="56.4" r="1.1"/>
				<circle class="st0" cx="74.8" cy="58.6" r="1.1"/>
				<circle class="st0" cx="83.7" cy="99.2" r="1.1"/>
				<circle class="st0" cx="37.8" cy="91.8" r="1.1"/>
				<circle class="st0" cx="13.6" cy="99.2" r="1.1"/>
			</g>
		</g>
	</g>
</g>
</svg>
