<?xml version="1.0" encoding="utf-8"?>
<!-- Generator: Adobe Illustrator 26.5.0, SVG Export Plug-In . SVG Version: 6.00 Build 0)  -->
<svg version="1.1" id="Layer_2_00000073689742860159854620000014919028911750172090_"
	 xmlns="http://www.w3.org/2000/svg" xmlns:xlink="http://www.w3.org/1999/xlink" x="0px" y="0px" viewBox="0 0 612.3 81.1"
	 style="enable-background:new 0 0 612.3 81.1;" xml:space="preserve">
<style type="text/css">
	.st0{fill:#FFFFFF;}
</style>
<g id="Layer_1-2">
	<g>
		<g>
			<path class="st0" d="M95.6,8.7h38.7v3.4h-17.5v52.2h-3.8V12.1H95.6L95.6,8.7L95.6,8.7z"/>
			<path class="st0" d="M135.9,54.3c0-6.9,5.3-11.3,14.1-12l12.9-1v-1.4c0-8.5-5-10.9-11-10.9c-7,0-11.1,3.3-11.1,8.8h-3.6
				c0-7.4,5.9-12.1,14.8-12.1c8.1,0,14.5,3.9,14.5,13.6v24.9h-2.9l-0.7-7c-2.6,5.1-7.8,8-14.3,8C140.5,65.2,135.9,60.8,135.9,54.3
				L135.9,54.3z M162.9,46.4v-2l-12.6,1c-7.6,0.6-10.8,4.3-10.8,8.9c0,5.2,3.9,7.8,9.6,7.8C157.9,62,162.9,55.6,162.9,46.4z"/>
			<path class="st0" d="M175.4,77.3h3.5c3.1,0,6.8,0,8.8-5.3l1.9-5.1l-15.3-40.2h3.8L191.3,62L204,26.7h3.7L191,73
				c-2,5.4-5.4,7.7-10.5,7.7c-2,0-3.5-0.2-5.1-0.5L175.4,77.3L175.4,77.3z"/>
			<path class="st0" d="M217.1,64.3V7.8h3.6v56.5L217.1,64.3L217.1,64.3z"/>
			<path class="st0" d="M251.1,25.8c10.7,0,18.6,8.4,18.6,19.7s-7.9,19.7-18.6,19.7s-18.6-8.4-18.6-19.7S240.3,25.8,251.1,25.8
				L251.1,25.8z M251.1,62c8.8,0,15-6.8,15-16.5s-6.2-16.5-15-16.5s-15,6.8-15,16.5S242.3,62,251.1,62L251.1,62z"/>
			<path class="st0" d="M299.1,29.3h-2.8c-7,0-11.5,5.1-11.5,12.1v22.9h-3.6V26.7h3.4l0.3,6c1.5-4.2,5.6-7,11-7c1.2,0,2,0.1,3.3,0.4
				L299.1,29.3L299.1,29.3z"/>
			<path class="st0" d="M330.8,64.3v-3.4l34-48.8h-33.8V8.7h38.3v3.4l-34,48.8h33.6v3.4H330.8L330.8,64.3z"/>
			<path class="st0" d="M409.8,60.8h26.5v3.4H406V8.7h3.8V60.8z"/>
			<path class="st0" d="M444.1,54.3c0-6.9,5.3-11.3,14.1-12l12.9-1v-1.4c0-8.5-5-10.9-11-10.9c-7,0-11.1,3.3-11.1,8.8h-3.6
				c0-7.4,6-12.1,14.8-12.1c8.1,0,14.5,3.9,14.5,13.6v24.9h-2.9l-0.7-7c-2.6,5.1-7.8,8-14.3,8C448.7,65.2,444.1,60.8,444.1,54.3
				L444.1,54.3z M471.1,46.4v-2l-12.6,1c-7.6,0.6-10.8,4.3-10.8,8.9c0,5.2,3.9,7.8,9.6,7.8C466.1,62,471.1,55.6,471.1,46.4z"/>
			<path class="st0" d="M488.5,64.3V26.7h2.9l0.8,7.3c2.5-5.2,7.7-8.2,13.3-8.2c10.6,0,14.6,6.3,14.6,15.7v22.9h-3.6V42.1
				c0-10-4.3-13.1-11.1-13.1c-8.5,0-13.3,6.3-13.3,15.8v19.4L488.5,64.3L488.5,64.3z"/>
			<path class="st0" d="M548.6,25.8c7,0,12.2,3.5,14.7,9.7l0.5-8.8h2.9v36.8c0,10.5-7,17.5-17.5,17.5c-9.1,0-15.6-5.1-17.2-13.7h3.5
				c1.4,6.6,6.5,10.4,13.7,10.4c8.3,0,13.9-5.7,13.9-14.2V53.3c-2.6,6-8.1,9.5-15,9.5c-10.8,0-17.2-8.6-17.2-18.6
				S537.5,25.8,548.6,25.8L548.6,25.8z M548.5,59.6c8.9,0,14.1-6.5,14.1-15.4s-4.9-15.2-13.9-15.2s-13.9,7-13.9,15.3
				S539.8,59.6,548.5,59.6L548.5,59.6z"/>
			<path class="st0" d="M578.1,45.6c0-11.8,7.1-19.8,17.6-19.8c9.8,0,16.5,7.1,16.5,17.3v2.5h-30.5c0.3,10.3,5.6,16.4,14.5,16.4
				c6.7,0,10.9-2.9,12.4-8.5h3.7c-2.2,7.8-7.6,11.8-16.1,11.8C585.3,65.2,578.1,57.4,578.1,45.6L578.1,45.6z M581.8,42.6h26.8
				c0-8.1-5.1-13.5-12.8-13.5S582.7,34.4,581.8,42.6L581.8,42.6z"/>
		</g>
		<g>
			<g>
				<polygon class="st0" points="76.2,36.6 67.4,33.4 67.4,33.2 76.2,36.4 				"/>
				<polygon class="st0" points="75.5,54.4 67.2,33.3 67.4,33.2 75.7,54.3 				"/>
				<polygon class="st0" points="47.7,34.8 47.7,34.6 67.3,33.3 67.3,33.5 				"/>
				<polygon class="st0" points="53.4,60.8 47.7,35.1 47.9,35.1 53.5,60.7 				"/>
				
					<rect x="52.7" y="57.4" transform="matrix(0.9623 -0.2719 0.2719 0.9623 -13.2183 19.6825)" class="st0" width="23.3" height="0.2"/>
				<polygon class="st0" points="67.3,33.5 58.3,3.5 58.5,3.4 67.5,33.4 				"/>
				<polygon class="st0" points="66.9,12.5 58.3,3.5 58.5,3.4 67,12.3 				"/>
				<polygon class="st0" points="35.5,24.1 35.4,24 58.3,3.3 58.5,3.5 				"/>
				<polygon class="st0" points="47.6,34.8 35.5,24 35.7,23.9 47.7,34.7 				"/>
				<polygon class="st0" points="36.7,74.1 36.6,73.9 53.5,60.2 53.6,60.3 				"/>
				
					<rect x="8.3" y="58.2" transform="matrix(0.9567 -0.2912 0.2912 0.9567 -16.2743 7.3141)" class="st0" width="16.2" height="0.2"/>
				<polygon class="st0" points="19.1,69.2 8.6,60.8 8.8,60.6 19.2,69 				"/>
				<polygon class="st0" points="36.3,74.6 8.6,60.8 8.7,60.6 36.3,74.4 				"/>
				
					<rect x="7.3" y="44.4" transform="matrix(0.9865 -0.1637 0.1637 0.9865 -8.4525 1.9169)" class="st0" width="0.2" height="15.7"/>
				<polygon class="st0" points="1.5,38.5 1.3,38.4 16.7,24.7 16.8,24.8 				"/>
				<polygon class="st0" points="24.2,56 16.9,24.6 17.1,24.5 24.4,55.9 				"/>
				<polygon class="st0" points="53.4,60.6 23.9,56.1 23.9,55.9 53.5,60.4 				"/>
				
					<rect x="19.8" y="45.3" transform="matrix(0.7475 -0.6643 0.6643 0.7475 -21.092 35.2565)" class="st0" width="32" height="0.2"/>
				<polygon class="st0" points="17,24.6 17,24.5 35.5,23.9 35.5,24.1 				"/>
				<polygon class="st0" points="17.1,24.6 16.9,24.5 21.2,4.1 21.4,4.2 				"/>
				<polygon class="st0" points="35.5,24.1 21.2,4.2 21.4,4.1 35.6,24 				"/>
				<polygon class="st0" points="58.2,3.6 41.5,1.5 41.5,1.3 58.2,3.4 				"/>
				<polygon class="st0" points="0.8,38.5 0.6,38.4 8.6,18.1 8.8,18.1 				"/>
				<polygon class="st0" points="5.6,44.5 0.6,38.5 0.8,38.4 5.8,44.4 				"/>
				<polygon class="st0" points="66.9,12.5 21.3,4.2 21.3,4.1 67,12.3 				"/>
				<polygon class="st0" points="36.2,74.5 24.1,56 24.2,55.9 36.4,74.4 				"/>
			</g>
			<g>
				<polygon class="st0" points="60,69.9 41.4,65.2 41.6,64.6 60.2,69.3 				"/>
				
					<rect x="33.5" y="37.8" transform="matrix(0.8772 -0.4801 0.4801 0.8772 -20.4996 22.5435)" class="st0" width="0.6" height="27"/>
				<polygon class="st0" points="42.5,64.1 42.2,63.6 65.7,49.7 66.1,50.3 				"/>
				
					<rect x="19.3" y="66.4" transform="matrix(0.9825 -0.1865 0.1865 0.9825 -11.9212 6.7023)" class="st0" width="20.6" height="0.6"/>
				<polygon class="st0" points="65.3,48.6 55.3,24.5 55.9,24.3 65.8,48.3 				"/>
				<rect x="26.4" y="32" transform="matrix(0.8843 -0.467 0.467 0.8843 -10.305 22.9625)" class="st0" width="29.5" height="0.6"/>
				<polygon class="st0" points="6.2,44.8 6.1,44.2 26.1,39.5 26.3,40.1 				"/>
				
					<rect x="15.8" y="25.2" transform="matrix(0.1614 -0.9869 0.9869 0.1614 -0.4409 50.4522)" class="st0" width="27.4" height="0.6"/>
				<polygon class="st0" points="54.5,24 32.1,12.2 32.4,11.7 54.8,23.5 				"/>
				
					<rect x="54.2" y="17.7" transform="matrix(0.6755 -0.7374 0.7374 0.6755 6.7672 51.4243)" class="st0" width="15.3" height="0.6"/>
				<polygon class="st0" points="67.2,49.3 66.7,48.9 76,36.3 76.5,36.7 				"/>
				<rect x="30" y="6.1" transform="matrix(0.6882 -0.7255 0.7255 0.6882 6.8603 28.7715)" class="st0" width="13.9" height="0.6"/>
				<polygon class="st0" points="9.2,18.3 9.1,17.7 31.1,11.5 31.3,12.1 				"/>
				<polygon class="st0" points="8.8,17.9 8.6,17.4 41.3,1.1 41.6,1.6 				"/>
				<polygon class="st0" points="6.3,44.2 5.6,44.1 8.4,18.1 9,18.1 				"/>
				
					<rect x="12.2" y="43.2" transform="matrix(0.871 -0.4912 0.4912 0.871 -26.2674 13.4539)" class="st0" width="0.6" height="27.1"/>
				
					<rect x="39.3" y="48.9" transform="matrix(1.308960e-02 -0.9999 0.9999 1.308960e-02 -30.2514 108.0827)" class="st0" width="0.6" height="40.9"/>
				
					<rect x="53.3" y="59.8" transform="matrix(0.2919 -0.9565 0.9565 0.2919 -12.8081 102.9116)" class="st0" width="19.7" height="0.6"/>
				<polygon class="st0" points="76.4,36.1 66.3,11.9 66.9,11.7 77,35.9 				"/>
				<polygon class="st0" points="66.8,12.6 41.3,1.4 41.6,0.8 67.1,12 				"/>
				
					<rect x="49.9" y="53.1" transform="matrix(0.4423 -0.8969 0.8969 0.4423 -9.7596 91.1866)" class="st0" width="37.1" height="0.6"/>
			</g>
			<g>
				<circle class="st0" cx="27.3" cy="39.4" r="2.2"/>
				<circle class="st0" cx="55.6" cy="24.6" r="2.2"/>
				<circle class="st0" cx="65.9" cy="49.6" r="2.2"/>
				<circle class="st0" cx="41.3" cy="64.3" r="2.2"/>
			</g>
			<g>
				<circle class="st0" cx="6" cy="44.4" r="1.1"/>
				<circle class="st0" cx="19.1" cy="68.8" r="1.1"/>
				<circle class="st0" cx="36.3" cy="74.5" r="1.1"/>
				<circle class="st0" cx="60.1" cy="69.6" r="1.1"/>
				<circle class="st0" cx="75.8" cy="54.4" r="1.1"/>
				<circle class="st0" cx="76.3" cy="36.4" r="1.1"/>
				<circle class="st0" cx="67" cy="12.3" r="1.1"/>
				<circle class="st0" cx="41.4" cy="1.1" r="1.1"/>
				<circle class="st0" cx="31.8" cy="11.8" r="1.1"/>
				<circle class="st0" cx="21" cy="4.2" r="1.1"/>
				<circle class="st0" cx="8.7" cy="18.1" r="1.1"/>
			</g>
			<g>
				<circle class="st0" cx="0.7" cy="38.5" r="0.7"/>
				<circle class="st0" cx="16.8" cy="24.8" r="0.7"/>
				<circle class="st0" cx="35.6" cy="24" r="0.7"/>
				<circle class="st0" cx="58.4" cy="3.4" r="0.7"/>
				<circle class="st0" cx="67.3" cy="33.3" r="0.7"/>
				<circle class="st0" cx="47.8" cy="34.7" r="0.7"/>
				<circle class="st0" cx="53.5" cy="60.7" r="0.7"/>
				<circle class="st0" cx="24.2" cy="56" r="0.7"/>
				<circle class="st0" cx="8.7" cy="60.7" r="0.7"/>
			</g>
		</g>
	</g>
</g>
</svg>
