<?xml version="1.0" encoding="UTF-8"?><svg id="Layer_2" xmlns="http://www.w3.org/2000/svg" viewBox="0 0 612.29 81.06"><defs><style>.cls-1{fill:#005d3f;}</style></defs><g id="Layer_1-2"><g><g><path class="cls-1" d="M95.63,8.69h38.69v3.45h-17.46v52.16h-3.76V12.14h-17.46v-3.45Z"/><path class="cls-1" d="M135.87,54.35c0-6.89,5.33-11.28,14.1-11.98l12.92-1.02v-1.41c0-8.46-5.01-10.89-10.96-10.89-6.97,0-11.12,3.29-11.12,8.77h-3.6c0-7.36,5.95-12.06,14.8-12.06,8.07,0,14.49,3.91,14.49,13.63v24.9h-2.9l-.7-7.05c-2.58,5.09-7.83,7.99-14.33,7.99-8.07,0-12.69-4.46-12.69-10.89Zm27.02-7.99v-2.04l-12.61,1.02c-7.6,.63-10.81,4.31-10.81,8.93,0,5.17,3.92,7.75,9.56,7.75,8.85,0,13.86-6.42,13.86-15.66Z"/><path class="cls-1" d="M175.42,77.3h3.52c3.05,0,6.81,0,8.77-5.32l1.88-5.09-15.27-40.18h3.76l13.23,35.24,12.69-35.24h3.68l-16.68,46.29c-1.96,5.4-5.4,7.67-10.5,7.67-2.04,0-3.52-.16-5.09-.47v-2.9Z"/><path class="cls-1" d="M217.08,64.3V7.75h3.6v56.54h-3.6Z"/><path class="cls-1" d="M251.07,25.77c10.73,0,18.64,8.38,18.64,19.73s-7.91,19.74-18.64,19.74-18.64-8.38-18.64-19.74,7.91-19.73,18.64-19.73Zm0,36.18c8.77,0,14.96-6.81,14.96-16.45s-6.19-16.45-14.96-16.45-14.96,6.81-14.96,16.45,6.19,16.45,14.96,16.45Z"/><path class="cls-1" d="M299.07,29.29h-2.82c-6.97,0-11.51,5.09-11.51,12.14v22.87h-3.6V26.71h3.37l.31,6.03c1.49-4.23,5.64-6.97,10.96-6.97,1.18,0,2.04,.08,3.29,.39v3.13Z"/><path class="cls-1" d="M330.78,64.3v-3.37l33.99-48.79h-33.83v-3.45h38.3v3.37l-33.99,48.79h33.6v3.45h-38.06Z"/><path class="cls-1" d="M409.79,60.85h26.47v3.45h-30.23V8.69h3.76V60.85Z"/><path class="cls-1" d="M444.08,54.35c0-6.89,5.32-11.28,14.09-11.98l12.92-1.02v-1.41c0-8.46-5.01-10.89-10.96-10.89-6.97,0-11.12,3.29-11.12,8.77h-3.61c0-7.36,5.95-12.06,14.8-12.06,8.07,0,14.49,3.91,14.49,13.63v24.9h-2.89l-.71-7.05c-2.58,5.09-7.83,7.99-14.33,7.99-8.07,0-12.69-4.46-12.69-10.89Zm27.02-7.99v-2.04l-12.61,1.02c-7.6,.63-10.81,4.31-10.81,8.93,0,5.17,3.92,7.75,9.56,7.75,8.85,0,13.86-6.42,13.86-15.66Z"/><path class="cls-1" d="M488.48,64.3V26.71h2.9l.78,7.29c2.51-5.25,7.67-8.22,13.31-8.22,10.65,0,14.65,6.26,14.65,15.66v22.87h-3.6v-22.16c0-9.95-4.31-13.08-11.12-13.08-8.53,0-13.31,6.34-13.31,15.82v19.42h-3.6Z"/><path class="cls-1" d="M548.62,25.77c6.97,0,12.22,3.45,14.72,9.71l.47-8.77h2.9V63.51c0,10.49-6.97,17.54-17.46,17.54-9.08,0-15.59-5.09-17.15-13.71h3.52c1.41,6.58,6.5,10.42,13.71,10.42,8.3,0,13.86-5.72,13.86-14.25v-10.18c-2.58,6.03-8.14,9.55-14.96,9.55-10.81,0-17.15-8.61-17.15-18.56s6.42-18.56,17.54-18.56Zm-.16,33.83c8.93,0,14.1-6.5,14.1-15.35s-4.94-15.19-13.94-15.19-13.86,7.05-13.86,15.27,5.01,15.27,13.71,15.27Z"/><path class="cls-1" d="M578.14,45.58c0-11.75,7.13-19.81,17.62-19.81,9.79,0,16.52,7.05,16.52,17.31v2.51h-30.54c.31,10.26,5.64,16.37,14.49,16.37,6.66,0,10.89-2.9,12.38-8.46h3.68c-2.19,7.75-7.6,11.75-16.06,11.75-10.89,0-18.09-7.83-18.09-19.66Zm3.68-2.98h26.79c0-8.15-5.09-13.55-12.84-13.55s-13.08,5.33-13.94,13.55Z"/></g><g><g><polygon class="cls-1" points="76.18 36.57 67.38 33.42 67.44 33.25 76.24 36.4 76.18 36.57"/><polygon class="cls-1" points="75.53 54.39 67.23 33.27 67.41 33.2 75.7 54.32 75.53 54.39"/><polygon class="cls-1" points="47.68 34.83 47.66 34.64 67.33 33.27 67.34 33.46 47.68 34.83"/><polygon class="cls-1" points="53.36 60.78 47.72 35.1 47.9 35.06 53.54 60.74 53.36 60.78"/><rect class="cls-1" x="52.75" y="57.44" width="23.31" height=".19" transform="translate(-13.22 19.68) rotate(-15.78)"/><polygon class="cls-1" points="67.32 33.49 58.31 3.45 58.49 3.4 67.5 33.44 67.32 33.49"/><polygon class="cls-1" points="66.88 12.46 58.33 3.49 58.47 3.36 67.01 12.33 66.88 12.46"/><polygon class="cls-1" points="35.52 24.11 35.4 23.97 58.33 3.35 58.46 3.5 35.52 24.11"/><polygon class="cls-1" points="47.61 34.81 35.55 24.01 35.67 23.87 47.73 34.66 47.61 34.81"/><polygon class="cls-1" points="36.7 74.07 36.58 73.93 53.46 60.18 53.58 60.32 36.7 74.07"/><rect class="cls-1" x="8.34" y="58.24" width="16.18" height=".19" transform="translate(-16.27 7.31) rotate(-16.93)"/><polygon class="cls-1" points="19.09 69.17 8.63 60.77 8.75 60.62 19.21 69.02 19.09 69.17"/><polygon class="cls-1" points="36.27 74.55 8.65 60.78 8.73 60.61 36.35 74.38 36.27 74.55"/><rect class="cls-1" x="7.31" y="44.4" width=".19" height="15.7" transform="translate(-8.45 1.92) rotate(-9.42)"/><polygon class="cls-1" points="1.46 38.52 1.34 38.38 16.72 24.68 16.84 24.83 1.46 38.52"/><polygon class="cls-1" points="24.16 55.95 16.92 24.57 17.1 24.53 24.35 55.9 24.16 55.95"/><polygon class="cls-1" points="53.43 60.59 23.87 56.07 23.9 55.89 53.46 60.41 53.43 60.59"/><rect class="cls-1" x="19.85" y="45.27" width="31.95" height=".19" transform="translate(-21.09 35.26) rotate(-41.63)"/><polygon class="cls-1" points="17.01 24.65 17.01 24.46 35.53 23.91 35.54 24.1 17.01 24.65"/><polygon class="cls-1" points="17.1 24.57 16.92 24.53 21.23 4.13 21.42 4.17 17.1 24.57"/><polygon class="cls-1" points="35.46 24.06 21.25 4.2 21.4 4.09 35.61 23.95 35.46 24.06"/><polygon class="cls-1" points="58.22 3.57 41.48 1.45 41.5 1.26 58.25 3.38 58.22 3.57"/><polygon class="cls-1" points=".79 38.49 .61 38.42 8.6 18.07 8.78 18.14 .79 38.49"/><polygon class="cls-1" points="5.61 44.5 .63 38.51 .77 38.39 5.75 44.38 5.61 44.5"/><polygon class="cls-1" points="66.93 12.49 21.31 4.24 21.34 4.05 66.96 12.3 66.93 12.49"/><polygon class="cls-1" points="36.23 74.51 24.09 56.03 24.25 55.93 36.39 74.41 36.23 74.51"/></g><g><polygon class="cls-1" points="60.02 69.94 41.41 65.2 41.57 64.58 60.18 69.32 60.02 69.94"/><rect class="cls-1" x="33.51" y="37.85" width=".63" height="27.01" transform="translate(-20.5 22.54) rotate(-28.69)"/><polygon class="cls-1" points="42.5 64.14 42.18 63.59 65.73 49.73 66.06 50.28 42.5 64.14"/><rect class="cls-1" x="19.34" y="66.39" width="20.63" height=".63" transform="translate(-11.92 6.7) rotate(-10.75)"/><polygon class="cls-1" points="65.26 48.57 55.3 24.53 55.89 24.29 65.85 48.33 65.26 48.57"/><rect class="cls-1" x="26.43" y="31.96" width="29.49" height=".63" transform="translate(-10.31 22.96) rotate(-27.84)"/><polygon class="cls-1" points="6.19 44.81 6.05 44.19 26.15 39.48 26.3 40.1 6.19 44.81"/><rect class="cls-1" x="15.75" y="25.17" width="27.43" height=".63" transform="translate(-.44 50.45) rotate(-80.71)"/><polygon class="cls-1" points="54.5 24.03 32.09 12.23 32.39 11.67 54.8 23.48 54.5 24.03"/><rect class="cls-1" x="54.17" y="17.71" width="15.26" height=".63" transform="translate(6.77 51.42) rotate(-47.51)"/><polygon class="cls-1" points="67.21 49.3 66.7 48.93 75.96 36.3 76.47 36.67 67.21 49.3"/><rect class="cls-1" x="29.95" y="6.09" width="13.91" height=".63" transform="translate(6.86 28.77) rotate(-46.51)"/><polygon class="cls-1" points="9.23 18.33 9.05 17.72 31.1 11.5 31.27 12.11 9.23 18.33"/><polygon class="cls-1" points="8.83 17.93 8.55 17.36 41.35 1.07 41.63 1.64 8.83 17.93"/><polygon class="cls-1" points="6.27 44.18 5.64 44.11 8.37 18.07 9 18.13 6.27 44.18"/><rect class="cls-1" x="12.18" y="43.2" width=".63" height="27.1" transform="translate(-26.27 13.46) rotate(-29.42)"/><rect class="cls-1" x="39.31" y="48.89" width=".63" height="40.95" transform="translate(-30.25 108.08) rotate(-89.25)"/><rect class="cls-1" x="53.26" y="59.79" width="19.69" height=".63" transform="translate(-12.81 102.92) rotate(-73.03)"/><polygon class="cls-1" points="76.43 36.11 66.33 11.94 66.91 11.7 77.01 35.87 76.43 36.11"/><polygon class="cls-1" points="66.84 12.57 41.31 1.36 41.57 .78 67.09 11.99 66.84 12.57"/><rect class="cls-1" x="49.88" y="53.12" width="37.1" height=".63" transform="translate(-9.75 91.18) rotate(-63.75)"/></g><g><circle class="cls-1" cx="27.31" cy="39.44" r="2.15"/><circle class="cls-1" cx="55.59" cy="24.6" r="2.15"/><circle class="cls-1" cx="65.9" cy="49.62" r="2.15"/><circle class="cls-1" cx="41.27" cy="64.3" r="2.15"/></g><g><circle class="cls-1" cx="5.97" cy="44.44" r="1.07"/><circle class="cls-1" cx="19.08" cy="68.78" r="1.07"/><circle class="cls-1" cx="36.31" cy="74.46" r="1.07"/><circle class="cls-1" cx="60.1" cy="69.63" r="1.07"/><circle class="cls-1" cx="75.75" cy="54.36" r="1.07"/><circle class="cls-1" cx="76.34" cy="36.41" r="1.07"/><circle class="cls-1" cx="66.96" cy="12.32" r="1.07"/><circle class="cls-1" cx="41.44" cy="1.07" r="1.07"/><circle class="cls-1" cx="31.79" cy="11.81" r="1.07"/><circle class="cls-1" cx="21.02" cy="4.15" r="1.07"/><circle class="cls-1" cx="8.69" cy="18.1" r="1.07"/></g><g><circle class="cls-1" cx=".7" cy="38.45" r=".7"/><circle class="cls-1" cx="16.78" cy="24.75" r=".7"/><circle class="cls-1" cx="35.61" cy="24.04" r=".7"/><circle class="cls-1" cx="58.4" cy="3.43" r=".7"/><circle class="cls-1" cx="67.32" cy="33.34" r=".7"/><circle class="cls-1" cx="47.81" cy="34.74" r=".7"/><circle class="cls-1" cx="53.45" cy="60.69" r=".7"/><circle class="cls-1" cx="24.17" cy="55.98" r=".7"/><circle class="cls-1" cx="8.69" cy="60.69" r=".7"/></g></g></g></g></svg>