<?xml version="1.0" encoding="UTF-8"?><svg id="Layer_2" xmlns="http://www.w3.org/2000/svg" viewBox="0 0 143.26 141.67"><defs><style>.cls-1{fill:#005d3f;}</style></defs><g id="Layer_1-2"><g><g><g><polygon class="cls-1" points="141.47 57.02 128.62 52.42 128.71 52.16 141.56 56.76 141.47 57.02"/><polygon class="cls-1" points="140.51 83.03 128.41 52.2 128.67 52.09 140.77 82.93 140.51 83.03"/><polygon class="cls-1" points="99.86 54.48 99.84 54.2 128.55 52.2 128.57 52.48 99.86 54.48"/><polygon class="cls-1" points="108.15 92.35 99.92 54.86 100.19 54.8 108.42 92.29 108.15 92.35"/><rect class="cls-1" x="107.26" y="87.48" width="34.02" height=".28" transform="translate(-19.22 37.33) rotate(-15.87)"/><polygon class="cls-1" points="128.53 52.52 115.38 8.67 115.64 8.59 128.8 52.45 128.53 52.52"/><polygon class="cls-1" points="127.88 21.82 115.41 8.73 115.61 8.53 128.09 21.63 127.88 21.82"/><rect class="cls-1" x="76.25" y="23.54" width="45.02" height=".28" transform="translate(9.48 72.09) rotate(-41.95)"/><polygon class="cls-1" points="99.75 54.44 82.15 38.68 82.33 38.47 99.94 54.23 99.75 54.44"/><polygon class="cls-1" points="83.83 111.76 83.66 111.55 108.3 91.47 108.48 91.69 83.83 111.76"/><polygon class="cls-1" points="42.98 92.36 42.9 92.09 65.5 85.22 65.58 85.48 42.98 92.36"/><polygon class="cls-1" points="58.13 104.61 42.86 92.33 43.03 92.12 58.3 104.39 58.13 104.61"/><polygon class="cls-1" points="83.2 112.46 42.88 92.35 43 92.1 83.33 112.21 83.2 112.46"/><polygon class="cls-1" points="42.81 91.22 39.05 68.62 39.33 68.57 43.08 91.18 42.81 91.22"/><polygon class="cls-1" points="32.4 59.87 32.21 59.66 54.66 39.66 54.85 39.87 32.4 59.87"/><polygon class="cls-1" points="65.53 85.3 54.95 39.5 55.22 39.44 65.8 85.24 65.53 85.3"/><rect class="cls-1" x="86.56" y="66.82" width=".28" height="43.66" transform="translate(-14.03 160.96) rotate(-81.31)"/><polygon class="cls-1" points="65.22 85.45 65.03 85.25 99.9 54.27 100.08 54.48 65.22 85.45"/><polygon class="cls-1" points="55.09 39.61 55.08 39.33 82.13 38.53 82.13 38.81 55.09 39.61"/><rect class="cls-1" x="43.02" y="24.44" width="30.45" height=".28" transform="translate(22.14 76.47) rotate(-78.06)"/><polygon class="cls-1" points="82.02 38.75 61.28 9.76 61.5 9.6 82.24 38.59 82.02 38.75"/><polygon class="cls-1" points="115.25 8.84 90.81 5.75 90.85 5.47 115.29 8.56 115.25 8.84"/><polygon class="cls-1" points="31.41 59.82 31.15 59.71 42.81 30 43.07 30.1 31.41 59.82"/><polygon class="cls-1" points="38.44 68.6 31.18 59.85 31.39 59.68 38.66 68.42 38.44 68.6"/><polygon class="cls-1" points="127.96 21.86 61.37 9.82 61.42 9.55 128.01 21.59 127.96 21.86"/><polygon class="cls-1" points="83.15 112.41 65.43 85.42 65.66 85.27 83.38 112.26 83.15 112.41"/></g><g><rect class="cls-1" x="103.95" y="87.8" width=".92" height="28.03" transform="translate(-20.03 177.86) rotate(-75.71)"/><polygon class="cls-1" points="88.7 96.12 69.77 61.52 70.58 61.08 89.51 95.67 88.7 96.12"/><rect class="cls-1" x="89.31" y="86.29" width="39.89" height=".92" transform="translate(-28.91 67.43) rotate(-30.49)"/><rect class="cls-1" x="58.49" y="100.55" width="30.11" height=".92" transform="translate(-17.58 15.52) rotate(-10.77)"/><rect class="cls-1" x="118.22" y="37.82" width=".92" height="37.98" transform="translate(-12.71 49.76) rotate(-22.51)"/><rect class="cls-1" x="68.84" y="50.28" width="43.05" height=".92" transform="translate(-13.24 48.13) rotate(-27.87)"/><polygon class="cls-1" points="39.3 69.04 39.08 68.14 68.43 61.27 68.65 62.17 39.3 69.04"/><rect class="cls-1" x="53.25" y="40.37" width="40.04" height=".92" transform="translate(21.13 106.54) rotate(-80.7)"/><polygon class="cls-1" points="109.82 38.71 77.11 21.48 77.54 20.67 110.26 37.9 109.82 38.71"/><polygon class="cls-1" points="113.3 38.47 112.61 37.85 127.64 21.41 128.33 22.03 113.3 38.47"/><rect class="cls-1" x="123.33" y="65.65" width="22.86" height=".92" transform="translate(1.75 135.69) rotate(-53.75)"/><rect class="cls-1" x="73.97" y="12.51" width="20.31" height=".92" transform="translate(16.8 65.06) rotate(-46.49)"/><rect class="cls-1" x="42.97" y="24.94" width="33.44" height=".92" transform="translate(-4.66 17.18) rotate(-15.77)"/><rect class="cls-1" x="40.15" y="17.04" width="53.46" height=".92" transform="translate(-.8 31.59) rotate(-26.42)"/><rect class="cls-1" x="21.83" y="48.6" width="38.23" height=".92" transform="translate(-12.14 84.64) rotate(-83.98)"/><polygon class="cls-1" points="57.81 103.93 38.38 69.47 39.18 69.02 58.62 103.48 57.81 103.93"/><polygon class="cls-1" points="117.98 105.74 58.21 104.96 58.22 104.04 118 104.82 117.98 105.74"/><rect class="cls-1" x="108.01" y="90.92" width="28.74" height=".92" transform="translate(-.7 181.81) rotate(-73.05)"/><rect class="cls-1" x="134.42" y="19.41" width=".92" height="38.24" transform="translate(-4.43 54.98) rotate(-22.68)"/><rect class="cls-1" x="108.92" y="-6.98" width=".92" height="40.7" transform="translate(53.14 108.14) rotate(-66.28)"/><rect class="cls-1" x="103.08" y="81.17" width="54.16" height=".92" transform="translate(-.55 162.37) rotate(-63.8)"/></g><g><circle class="cls-1" cx="70.13" cy="61.2" r="3.13"/><circle class="cls-1" cx="111.42" cy="39.55" r="3.13"/><circle class="cls-1" cx="126.45" cy="76.06" r="3.13"/><circle class="cls-1" cx="90.51" cy="97.49" r="3.13"/></g><g><circle class="cls-1" cx="38.97" cy="68.51" r="1.56"/><circle class="cls-1" cx="58.11" cy="104.03" r="1.56"/><circle class="cls-1" cx="83.26" cy="112.33" r="1.56"/><circle class="cls-1" cx="117.99" cy="105.28" r="1.56"/><circle class="cls-1" cx="140.85" cy="82.98" r="1.56"/><circle class="cls-1" cx="141.7" cy="56.79" r="1.56"/><circle class="cls-1" cx="128.01" cy="21.62" r="1.56"/><circle class="cls-1" cx="90.75" cy="5.19" r="1.56"/><circle class="cls-1" cx="76.67" cy="20.86" r="1.56"/><circle class="cls-1" cx="60.94" cy="9.68" r="1.56"/><circle class="cls-1" cx="42.94" cy="30.05" r="1.56"/></g><g><circle class="cls-1" cx="31.28" cy="59.77" r="1.02"/><circle class="cls-1" cx="54.75" cy="39.77" r="1.02"/><circle class="cls-1" cx="82.24" cy="38.73" r="1.02"/><circle class="cls-1" cx="115.51" cy="8.63" r="1.02"/><circle class="cls-1" cx="128.54" cy="52.29" r="1.02"/><circle class="cls-1" cx="100.06" cy="54.34" r="1.02"/><circle class="cls-1" cx="108.28" cy="92.23" r="1.02"/><circle class="cls-1" cx="65.54" cy="85.35" r="1.02"/><circle class="cls-1" cx="42.94" cy="92.23" r="1.02"/></g></g><path class="cls-1" d="M16.21,4.05V125.47H82.9v12.15H4.05V4.05h12.16M20.26,0H0V141.67H86.95v-20.25H20.26V0h0Z"/></g></g></svg>