<?xml version="1.0" encoding="UTF-8"?><svg id="Layer_2" xmlns="http://www.w3.org/2000/svg" viewBox="0 0 413.12 142.75"><defs><style>.cls-1{fill:#005d3f;}</style></defs><g id="Layer_1-2"><g><g><g><path class="cls-1" d="M144.23,.92h38.02v3.39h-17.16V55.57h-3.69V4.31h-17.16V.92Z"/><path class="cls-1" d="M183.79,45.8c0-6.77,5.24-11.08,13.85-11.78l12.7-1v-1.39c0-8.31-4.93-10.7-10.78-10.7-6.85,0-10.93,3.23-10.93,8.62h-3.54c0-7.24,5.85-11.85,14.55-11.85,7.93,0,14.24,3.85,14.24,13.39v24.47h-2.85l-.69-6.93c-2.54,5-7.7,7.85-14.08,7.85-7.93,0-12.47-4.39-12.47-10.7Zm26.55-7.85v-2l-12.39,1c-7.47,.61-10.62,4.23-10.62,8.77,0,5.08,3.85,7.62,9.39,7.62,8.7,0,13.62-6.31,13.62-15.39Z"/><path class="cls-1" d="M222.65,68.35h3.46c3,0,6.7,0,8.62-5.23l1.85-5-15.01-39.48h3.69l13.01,34.64,12.47-34.64h3.62l-16.39,45.49c-1.92,5.31-5.31,7.54-10.31,7.54-2,0-3.46-.15-5-.46v-2.85Z"/><path class="cls-1" d="M263.59,55.57V0h3.54V55.57h-3.54Z"/><path class="cls-1" d="M296.99,17.7c10.55,0,18.32,8.23,18.32,19.39s-7.77,19.4-18.32,19.4-18.32-8.24-18.32-19.4,7.77-19.39,18.32-19.39Zm0,35.56c8.62,0,14.7-6.7,14.7-16.16s-6.08-16.16-14.7-16.16-14.7,6.7-14.7,16.16,6.08,16.16,14.7,16.16Z"/><path class="cls-1" d="M344.17,21.17h-2.77c-6.85,0-11.31,5-11.31,11.93v22.47h-3.54V18.62h3.31l.31,5.93c1.46-4.15,5.54-6.85,10.78-6.85,1.15,0,2,.08,3.23,.38v3.08Z"/><path class="cls-1" d="M375.33,55.57v-3.31L408.73,4.31h-33.25V.92h37.64v3.31l-33.4,47.95h33.02v3.39h-37.41Z"/></g><g><path class="cls-1" d="M154.08,122.9h26.01v3.39h-29.71v-54.65h3.69v51.26Z"/><path class="cls-1" d="M187.79,116.51c0-6.77,5.24-11.08,13.85-11.78l12.7-1v-1.39c0-8.31-4.93-10.7-10.78-10.7-6.85,0-10.93,3.23-10.93,8.62h-3.54c0-7.24,5.85-11.85,14.55-11.85,7.93,0,14.24,3.85,14.24,13.39v24.47h-2.85l-.69-6.93c-2.54,5-7.7,7.85-14.08,7.85-7.93,0-12.47-4.39-12.47-10.7Zm26.55-7.85v-2l-12.39,1c-7.47,.61-10.62,4.23-10.62,8.77,0,5.08,3.85,7.62,9.39,7.62,8.7,0,13.62-6.31,13.62-15.39Z"/><path class="cls-1" d="M231.42,126.28v-36.94h2.85l.77,7.16c2.46-5.16,7.54-8.08,13.08-8.08,10.47,0,14.39,6.16,14.39,15.39v22.47h-3.54v-21.78c0-9.78-4.23-12.85-10.93-12.85-8.39,0-13.08,6.23-13.08,15.55v19.09h-3.54Z"/><path class="cls-1" d="M290.52,88.42c6.85,0,12.01,3.39,14.47,9.54l.46-8.62h2.85v36.18c0,10.31-6.85,17.24-17.16,17.24-8.93,0-15.32-5-16.85-13.47h3.46c1.39,6.47,6.39,10.24,13.47,10.24,8.16,0,13.62-5.62,13.62-14.01v-10.01c-2.54,5.93-8,9.39-14.7,9.39-10.62,0-16.85-8.47-16.85-18.24s6.31-18.24,17.24-18.24Zm-.15,33.25c8.77,0,13.85-6.39,13.85-15.08s-4.85-14.93-13.7-14.93-13.62,6.93-13.62,15.01,4.93,15.01,13.47,15.01Z"/><path class="cls-1" d="M319.53,107.89c0-11.54,7-19.47,17.32-19.47,9.62,0,16.24,6.93,16.24,17.01v2.46h-30.02c.31,10.08,5.54,16.09,14.24,16.09,6.54,0,10.7-2.85,12.16-8.31h3.62c-2.15,7.62-7.47,11.54-15.78,11.54-10.7,0-17.78-7.7-17.78-19.32Zm3.62-2.92h26.32c0-8.01-5-13.32-12.62-13.32s-12.85,5.24-13.7,13.32Z"/></g></g><g><g><polygon class="cls-1" points="119.23 61.46 105.45 56.53 105.55 56.25 119.33 61.18 119.23 61.46"/><polygon class="cls-1" points="118.21 89.35 105.23 56.29 105.5 56.18 118.48 89.24 118.21 89.35"/><polygon class="cls-1" points="74.62 58.73 74.6 58.44 105.38 56.3 105.4 56.59 74.62 58.73"/><polygon class="cls-1" points="83.51 99.34 74.69 59.15 74.98 59.09 83.8 99.28 83.51 99.34"/><rect class="cls-1" x="82.56" y="94.12" width="36.48" height=".3" transform="translate(-21.91 31.1) rotate(-15.84)"/><polygon class="cls-1" points="105.36 56.64 91.26 9.62 91.54 9.54 105.65 56.56 105.36 56.64"/><polygon class="cls-1" points="104.67 23.72 91.29 9.68 91.51 9.48 104.88 23.51 104.67 23.72"/><polygon class="cls-1" points="55.59 41.96 55.4 41.74 91.3 9.47 91.5 9.69 55.59 41.96"/><rect class="cls-1" x="65.02" y="37.47" width=".3" height="25.33" transform="translate(-15.65 65.26) rotate(-48.17)"/><polygon class="cls-1" points="57.44 120.15 57.25 119.92 83.68 98.4 83.86 98.63 57.44 120.15"/><polygon class="cls-1" points="13.64 99.35 13.56 99.06 37.79 91.69 37.87 91.97 13.64 99.35"/><polygon class="cls-1" points="29.88 112.48 13.51 99.32 13.69 99.09 30.07 112.25 29.88 112.48"/><polygon class="cls-1" points="56.76 120.9 13.54 99.34 13.67 99.07 56.9 120.63 56.76 120.9"/><polygon class="cls-1" points="13.45 98.13 9.43 73.89 9.72 73.84 13.75 98.08 13.45 98.13"/><polygon class="cls-1" points="2.29 64.51 2.1 64.29 26.16 42.85 26.36 43.07 2.29 64.51"/><polygon class="cls-1" points="37.81 91.78 26.48 42.68 26.77 42.61 38.1 91.71 37.81 91.78"/><polygon class="cls-1" points="83.63 99.05 37.36 91.98 37.4 91.68 83.68 98.76 83.63 99.05"/><polygon class="cls-1" points="37.48 91.94 37.28 91.72 74.66 58.51 74.86 58.73 37.48 91.94"/><polygon class="cls-1" points="26.63 42.79 26.62 42.49 55.61 41.64 55.62 41.94 26.63 42.79"/><polygon class="cls-1" points="26.77 42.67 26.48 42.61 33.23 10.68 33.52 10.74 26.77 42.67"/><polygon class="cls-1" points="55.49 41.87 33.26 10.8 33.5 10.62 55.73 41.7 55.49 41.87"/><polygon class="cls-1" points="91.12 9.8 64.92 6.49 64.96 6.2 91.16 9.51 91.12 9.8"/><polygon class="cls-1" points="1.23 64.46 .96 64.35 13.46 32.49 13.74 32.6 1.23 64.46"/><rect class="cls-1" x="4.85" y="63" width=".3" height="12.19" transform="translate(-43.01 19.15) rotate(-39.73)"/><polygon class="cls-1" points="104.75 23.76 33.35 10.86 33.41 10.56 104.8 23.47 104.75 23.76"/><rect class="cls-1" x="47.18" y="88.99" width=".3" height="34.61" transform="translate(-50.59 43.43) rotate(-33.3)"/></g><g><rect class="cls-1" x="79" y="94.46" width=".99" height="30.05" transform="translate(-46.22 159.5) rotate(-75.71)"/><rect class="cls-1" x="52.45" y="63.45" width=".99" height="42.28" transform="translate(-34.11 35.8) rotate(-28.69)"/><rect class="cls-1" x="63.31" y="92.83" width="42.77" height=".99" transform="translate(-35.63 55.83) rotate(-30.47)"/><rect class="cls-1" x="30.26" y="108.13" width="32.29" height=".99" transform="translate(-19.58 10.65) rotate(-10.83)"/><rect class="cls-1" x="94.31" y="40.88" width=".99" height="40.72" transform="translate(-16.22 40.96) rotate(-22.51)"/><polygon class="cls-1" points="44.27 65.95 43.8 65.08 84.6 43.51 85.07 44.39 44.27 65.95"/><polygon class="cls-1" points="9.69 74.35 9.46 73.39 40.93 66.02 41.15 66.98 9.69 74.35"/><polygon class="cls-1" points="43.13 65.37 42.15 65.21 49.09 22.84 50.07 23 43.13 65.37"/><rect class="cls-1" x="67.5" y="12.34" width=".99" height="39.64" transform="translate(7.85 77.33) rotate(-62.22)"/><rect class="cls-1" x="84.78" y="31.93" width="23.88" height=".99" transform="translate(7.5 81.88) rotate(-47.53)"/><polygon class="cls-1" points="105.19 81.38 104.4 80.8 118.88 61.03 119.68 61.62 105.19 81.38"/><polygon class="cls-1" points="50.62 22.48 49.9 21.8 64.9 6 65.61 6.68 50.62 22.48"/><polygon class="cls-1" points="14.44 32.9 14.17 31.95 48.67 22.22 48.94 23.17 14.44 32.9"/><rect class="cls-1" x="10.61" y="18.6" width="57.32" height=".99" transform="translate(-4.39 19.5) rotate(-26.46)"/><rect class="cls-1" x="-9.03" y="52.44" width="40.99" height=".99" transform="translate(-42.38 58.76) rotate(-83.96)"/><rect class="cls-1" x="19.06" y="71.83" width=".99" height="42.41" transform="translate(-43.18 21.61) rotate(-29.42)"/><polygon class="cls-1" points="94.05 113.69 29.97 112.86 29.98 111.87 94.06 112.7 94.05 113.69"/><polygon class="cls-1" points="94.75 113.19 93.81 112.9 102.79 83.41 103.73 83.7 94.75 113.19"/><polygon class="cls-1" points="119.62 60.74 103.81 22.91 104.73 22.53 120.53 60.36 119.62 60.74"/><rect class="cls-1" x="84.33" y="-7.15" width=".99" height="43.63" transform="translate(37.28 86.43) rotate(-66.28)"/><rect class="cls-1" x="78.07" y="87.35" width="58.07" height=".99" transform="translate(-18.97 145.23) rotate(-63.83)"/></g><g><circle class="cls-1" cx="42.75" cy="65.94" r="3.36"/><circle class="cls-1" cx="87.01" cy="42.73" r="3.36"/><circle class="cls-1" cx="103.13" cy="81.88" r="3.36"/><circle class="cls-1" cx="64.6" cy="104.85" r="3.36"/></g><g><circle class="cls-1" cx="9.34" cy="73.78" r="1.67"/><circle class="cls-1" cx="29.86" cy="111.86" r="1.67"/><circle class="cls-1" cx="56.83" cy="120.76" r="1.67"/><circle class="cls-1" cx="94.06" cy="113.2" r="1.67"/><circle class="cls-1" cx="118.56" cy="89.29" r="1.67"/><circle class="cls-1" cx="119.48" cy="61.21" r="1.67"/><circle class="cls-1" cx="104.8" cy="23.5" r="1.67"/><circle class="cls-1" cx="64.86" cy="5.89" r="1.67"/><circle class="cls-1" cx="49.76" cy="22.7" r="1.67"/><circle class="cls-1" cx="32.89" cy="10.71" r="1.67"/><circle class="cls-1" cx="13.6" cy="32.55" r="1.67"/></g><g><circle class="cls-1" cx="1.1" cy="64.4" r="1.1"/><circle class="cls-1" cx="26.26" cy="42.96" r="1.1"/><circle class="cls-1" cx="55.73" cy="41.85" r="1.1"/><circle class="cls-1" cx="91.4" cy="9.58" r="1.1"/><circle class="cls-1" cx="105.37" cy="56.39" r="1.1"/><circle class="cls-1" cx="74.83" cy="58.58" r="1.1"/><circle class="cls-1" cx="83.65" cy="99.2" r="1.1"/><circle class="cls-1" cx="37.83" cy="91.83" r="1.1"/><circle class="cls-1" cx="13.6" cy="99.2" r="1.1"/></g></g></g></g></svg>