<?xml version="1.0" encoding="utf-8"?>
<!-- Generator: Adobe Illustrator 26.5.0, SVG Export Plug-In . SVG Version: 6.00 Build 0)  -->
<svg version="1.1" id="Layer_2_00000122721282982952160440000015587950374319628957_"
	 xmlns="http://www.w3.org/2000/svg" xmlns:xlink="http://www.w3.org/1999/xlink" x="0px" y="0px" viewBox="0 0 143.3 141.7"
	 style="enable-background:new 0 0 143.3 141.7;" xml:space="preserve">
<style type="text/css">
	.st0{fill:#FFFFFF;}
</style>
<g id="Layer_1-2">
	<g>
		<g>
			<g>
				<polygon class="st0" points="141.5,57 128.6,52.4 128.7,52.2 141.6,56.8 				"/>
				<polygon class="st0" points="140.5,83 128.4,52.2 128.7,52.1 140.8,82.9 				"/>
				<polygon class="st0" points="99.9,54.5 99.8,54.2 128.6,52.2 128.6,52.5 				"/>
				<polygon class="st0" points="108.2,92.3 99.9,54.9 100.2,54.8 108.4,92.3 				"/>
				
					<rect x="107.3" y="87.5" transform="matrix(0.9619 -0.2735 0.2735 0.9619 -19.2256 37.3233)" class="st0" width="34" height="0.3"/>
				<polygon class="st0" points="128.5,52.5 115.4,8.7 115.6,8.6 128.8,52.5 				"/>
				<polygon class="st0" points="127.9,21.8 115.4,8.7 115.6,8.5 128.1,21.6 				"/>
				
					<rect x="76.3" y="23.5" transform="matrix(0.7437 -0.6685 0.6685 0.7437 9.4783 72.0885)" class="st0" width="45" height="0.3"/>
				<polygon class="st0" points="99.8,54.4 82.2,38.7 82.3,38.5 99.9,54.2 				"/>
				<polygon class="st0" points="83.8,111.8 83.7,111.6 108.3,91.5 108.5,91.7 				"/>
				<polygon class="st0" points="43,92.4 42.9,92.1 65.5,85.2 65.6,85.5 				"/>
				<polygon class="st0" points="58.1,104.6 42.9,92.3 43,92.1 58.3,104.4 				"/>
				<polygon class="st0" points="83.2,112.5 42.9,92.3 43,92.1 83.3,112.2 				"/>
				<polygon class="st0" points="42.8,91.2 39,68.6 39.3,68.6 43.1,91.2 				"/>
				<polygon class="st0" points="32.4,59.9 32.2,59.7 54.7,39.7 54.8,39.9 				"/>
				<polygon class="st0" points="65.5,85.3 55,39.5 55.2,39.4 65.8,85.2 				"/>
				
					<rect x="86.6" y="66.8" transform="matrix(0.1511 -0.9885 0.9885 0.1511 -14.0295 160.9618)" class="st0" width="0.3" height="43.7"/>
				<polygon class="st0" points="65.2,85.4 65,85.2 99.9,54.3 100.1,54.5 				"/>
				<polygon class="st0" points="55.1,39.6 55.1,39.3 82.1,38.5 82.1,38.8 				"/>
				
					<rect x="43" y="24.4" transform="matrix(0.2069 -0.9784 0.9784 0.2069 22.1507 76.4655)" class="st0" width="30.5" height="0.3"/>
				<polygon class="st0" points="82,38.8 61.3,9.8 61.5,9.6 82.2,38.6 				"/>
				<polygon class="st0" points="115.2,8.8 90.8,5.8 90.8,5.5 115.3,8.6 				"/>
				<polygon class="st0" points="31.4,59.8 31.1,59.7 42.8,30 43.1,30.1 				"/>
				<polygon class="st0" points="38.4,68.6 31.2,59.8 31.4,59.7 38.7,68.4 				"/>
				<polygon class="st0" points="128,21.9 61.4,9.8 61.4,9.6 128,21.6 				"/>
				<polygon class="st0" points="83.2,112.4 65.4,85.4 65.7,85.3 83.4,112.3 				"/>
			</g>
			<g>
				
					<rect x="103.9" y="87.8" transform="matrix(0.2468 -0.9691 0.9691 0.2468 -20.0257 177.8572)" class="st0" width="0.9" height="28"/>
				<polygon class="st0" points="88.7,96.1 69.8,61.5 70.6,61.1 89.5,95.7 				"/>
				
					<rect x="89.3" y="86.3" transform="matrix(0.8617 -0.5074 0.5074 0.8617 -28.9078 67.4295)" class="st0" width="39.9" height="0.9"/>
				
					<rect x="58.5" y="100.5" transform="matrix(0.9824 -0.1869 0.1869 0.9824 -17.5795 15.5223)" class="st0" width="30.1" height="0.9"/>
				
					<rect x="118.2" y="37.8" transform="matrix(0.9238 -0.3828 0.3828 0.9238 -12.7061 49.7629)" class="st0" width="0.9" height="38"/>
				
					<rect x="68.8" y="50.3" transform="matrix(0.884 -0.4675 0.4675 0.884 -13.2391 48.1272)" class="st0" width="43.1" height="0.9"/>
				<polygon class="st0" points="39.3,69 39.1,68.1 68.4,61.3 68.7,62.2 				"/>
				
					<rect x="53.2" y="40.4" transform="matrix(0.1616 -0.9869 0.9869 0.1616 21.1296 106.5339)" class="st0" width="40" height="0.9"/>
				<polygon class="st0" points="109.8,38.7 77.1,21.5 77.5,20.7 110.3,37.9 				"/>
				<polygon class="st0" points="113.3,38.5 112.6,37.8 127.6,21.4 128.3,22 				"/>
				
					<rect x="123.3" y="65.6" transform="matrix(0.5913 -0.8064 0.8064 0.5913 1.7606 135.684)" class="st0" width="22.9" height="0.9"/>
				
					<rect x="74" y="12.5" transform="matrix(0.6885 -0.7253 0.7253 0.6885 16.7945 65.0548)" class="st0" width="20.3" height="0.9"/>
				
					<rect x="43" y="24.9" transform="matrix(0.9624 -0.2718 0.2718 0.9624 -4.657 17.1775)" class="st0" width="33.4" height="0.9"/>
				
					<rect x="40.2" y="17" transform="matrix(0.8956 -0.4449 0.4449 0.8956 -0.8031 31.5869)" class="st0" width="53.5" height="0.9"/>
				
					<rect x="21.8" y="48.6" transform="matrix(0.1049 -0.9945 0.9945 0.1049 -12.1458 84.638)" class="st0" width="38.2" height="0.9"/>
				<polygon class="st0" points="57.8,103.9 38.4,69.5 39.2,69 58.6,103.5 				"/>
				<polygon class="st0" points="118,105.7 58.2,105 58.2,104 118,104.8 				"/>
				
					<rect x="108" y="90.9" transform="matrix(0.2915 -0.9566 0.9566 0.2915 -0.7091 181.8163)" class="st0" width="28.7" height="0.9"/>
				
					<rect x="134.4" y="19.4" transform="matrix(0.9227 -0.3856 0.3856 0.9227 -4.4242 54.9852)" class="st0" width="0.9" height="38.2"/>
				
					<rect x="108.9" y="-7" transform="matrix(0.4023 -0.9155 0.9155 0.4023 53.132 108.1371)" class="st0" width="0.9" height="40.7"/>
				
					<rect x="103.1" y="81.2" transform="matrix(0.4415 -0.8973 0.8973 0.4415 -0.5435 162.3727)" class="st0" width="54.2" height="0.9"/>
			</g>
			<g>
				<circle class="st0" cx="70.1" cy="61.2" r="3.1"/>
				<circle class="st0" cx="111.4" cy="39.5" r="3.1"/>
				<circle class="st0" cx="126.4" cy="76.1" r="3.1"/>
				<circle class="st0" cx="90.5" cy="97.5" r="3.1"/>
			</g>
			<g>
				<circle class="st0" cx="39" cy="68.5" r="1.6"/>
				<circle class="st0" cx="58.1" cy="104" r="1.6"/>
				<circle class="st0" cx="83.3" cy="112.3" r="1.6"/>
				<circle class="st0" cx="118" cy="105.3" r="1.6"/>
				<circle class="st0" cx="140.9" cy="83" r="1.6"/>
				<circle class="st0" cx="141.7" cy="56.8" r="1.6"/>
				<circle class="st0" cx="128" cy="21.6" r="1.6"/>
				<circle class="st0" cx="90.8" cy="5.2" r="1.6"/>
				<circle class="st0" cx="76.7" cy="20.9" r="1.6"/>
				<circle class="st0" cx="60.9" cy="9.7" r="1.6"/>
				<circle class="st0" cx="42.9" cy="30" r="1.6"/>
			</g>
			<g>
				<circle class="st0" cx="31.3" cy="59.8" r="1"/>
				<circle class="st0" cx="54.8" cy="39.8" r="1"/>
				<circle class="st0" cx="82.2" cy="38.7" r="1"/>
				<circle class="st0" cx="115.5" cy="8.6" r="1"/>
				<circle class="st0" cx="128.5" cy="52.3" r="1"/>
				<circle class="st0" cx="100.1" cy="54.3" r="1"/>
				<circle class="st0" cx="108.3" cy="92.2" r="1"/>
				<circle class="st0" cx="65.5" cy="85.3" r="1"/>
				<circle class="st0" cx="42.9" cy="92.2" r="1"/>
			</g>
		</g>
		<path class="st0" d="M16.2,4.1v121.4h66.7v12.1H4.1V4.1H16.2 M20.3,0H0v141.7h86.9v-20.2H20.3V0L20.3,0z"/>
	</g>
</g>
</svg>
